HIERARCHY
ROOT Hips
{
	OFFSET -3.958830 18.904000 13.208200
	CHANNELS 6 Xposition Yposition Zposition Zrotation Yrotation Xrotation 
	JOINT LHipJoint
	{
		OFFSET 0.000000 0.000000 0.000000
		CHANNELS 3 Zrotation Yrotation Xrotation
		JOINT LeftUpLeg
		{
			OFFSET 1.800000 -1.400000 0.085000
			CHANNELS 3 Zrotation Yrotation Xrotation
			JOINT LeftLeg
			{
				OFFSET 2.215000 -6.000000 0.000000
				CHANNELS 3 Zrotation Yrotation Xrotation
				JOINT LeftFoot
				{
					OFFSET 2.500000 -6.900000 0.000000
					CHANNELS 3 Zrotation Yrotation Xrotation
					JOINT LeftToeBase
					{
						OFFSET 0.200000 -0.500000 1.950000
						CHANNELS 3 Zrotation Yrotation Xrotation
						End Site
						{
							OFFSET 0.000000 0.000000 0.000000
						}
					}
				}
			}
		}
	}
	JOINT RHipJoint
	{
		OFFSET 0.000000 0.000000 0.000000
		CHANNELS 3 Zrotation Yrotation Xrotation
		JOINT RightUpLeg
		{
			OFFSET -1.800000 -1.400000 0.085000
			CHANNELS 3 Zrotation Yrotation Xrotation
			JOINT RightLeg
			{
				OFFSET -2.215000 -6.000000 0.000000
				CHANNELS 3 Zrotation Yrotation Xrotation
				JOINT RightFoot
				{
					OFFSET -2.500000 -6.900000 0.000000
					CHANNELS 3 Zrotation Yrotation Xrotation
					JOINT RightToeBase
					{
						OFFSET -0.200000 -0.500000 1.950000
						CHANNELS 3 Zrotation Yrotation Xrotation
						End Site
						{
							OFFSET 0.000000 0.000000 0.000000
						}
					}
				}
			}
		}
	}
	JOINT LowerBack
	{
		OFFSET 0.000000 0.000000 0.000000
		CHANNELS 3 Zrotation Yrotation Xrotation
		JOINT Spine
		{
			OFFSET -0.087000 1.940000 -0.288900
			CHANNELS 3 Zrotation Yrotation Xrotation
			JOINT Spine1
			{
				OFFSET 0.000000 1.950000 0.060000
				CHANNELS 3 Zrotation Yrotation Xrotation
				JOINT Neck
				{
					OFFSET 0.000000 0.000000 0.000000
					CHANNELS 3 Zrotation Yrotation Xrotation
					JOINT Neck1
					{
						OFFSET 0.000000 1.600000 0.340000
						CHANNELS 3 Zrotation Yrotation Xrotation
						JOINT Head
						{
							OFFSET 0.000000 1.667000 -0.240000
							CHANNELS 3 Zrotation Yrotation Xrotation
							End Site
							{
								OFFSET 0.000000 0.000000 0.000000
							}
						}
					}
				}
				JOINT LeftShoulder
				{
					OFFSET 0.000000 0.000000 0.000000
					CHANNELS 3 Zrotation Yrotation Xrotation
					JOINT LeftArm
					{
						OFFSET 2.700000 1.550000 -0.730000
						CHANNELS 3 Zrotation Yrotation Xrotation
						JOINT LeftForeArm
						{
							OFFSET 5.450000 0.000000 0.000000
							CHANNELS 3 Zrotation Yrotation Xrotation
							JOINT LeftHand
							{
								OFFSET 3.450000 0.000000 0.000000
								CHANNELS 3 Zrotation Yrotation Xrotation
								JOINT LeftHandIndex1
								{
									OFFSET 0.750000 0.000000 0.000000
									CHANNELS 3 Zrotation Yrotation Xrotation
									End Site
									{
										OFFSET 0.000000 0.000000 0.000000
									}
								}
							}
						}
					}
				}
				JOINT RightShoulder
				{
					OFFSET 0.000000 0.000000 0.000000
					CHANNELS 3 Zrotation Yrotation Xrotation
					JOINT RightArm
					{
						OFFSET -2.700000 1.550000 -0.730000
						CHANNELS 3 Zrotation Yrotation Xrotation
						JOINT RightForeArm
						{
							OFFSET -5.450000 0.000000 0.000000
							CHANNELS 3 Zrotation Yrotation Xrotation
							JOINT RightHand
							{
								OFFSET -3.450000 0.000000 0.000000
								CHANNELS 3 Zrotation Yrotation Xrotation
								JOINT RightHandIndex1
								{
									OFFSET -0.750000 0.000000 0.000000
									CHANNELS 3 Zrotation Yrotation Xrotation
									End Site
									{
										OFFSET 0.000000 0.000000 0.000000
									}
								}
							}
						}
					}
				}
			}
		}
	}
}
MOTION
Frames: 14
Frame Time: 0.016667
0.866230 16.091670 0.847400 0.260478 7.133669 -3.907997 -16.050652 14.392684 3.900598 -11.043832 -1.218420 -7.900894 -13.789604 6.863564 11.257296 0.089025 4.382527 3.088208 0.108990 0.108770 0.233460 17.567261 -7.938774 3.762747 -0.734043 5.469524 -36.290394 18.999592 -16.164599 43.058375 -1.182708 -7.469154 1.611175 -0.095130 0.002840 0.198650 -1.460886 -8.262740 -8.837252 19.048413 -10.917299 43.637730 8.564462 -5.809313 7.901833 6.837392 -1.473827 -17.806332 -6.288960 -3.720763 33.915286 -15.702200 1.496420 -16.426200 -14.059696 -23.316286 9.892460 -14.333871 -3.714117 -0.651634 -3.846518 -11.520416 0.023270 -3.451241 2.734333 0.502610 -0.066940 0.327270 0.037780 0.413146 25.231884 13.341689 13.023705 -3.325813 -10.016872 -24.256553 -19.423069 2.880275 3.454904 -1.280229 -0.074990 0.146930 -0.029370 -0.009750 
0.869680 16.083720 0.843230 1.313239 7.326904 -3.884007 -16.114063 14.416073 3.958800 -11.769221 -1.213351 -7.556500 -14.214217 6.962240 11.209124 0.117805 4.430510 3.049561 0.108370 0.106950 0.237280 17.523704 -7.848315 3.742733 0.029013 5.952521 -35.877748 17.828654 -15.601328 43.840711 -1.189960 -7.403254 1.626392 -0.114810 -0.029190 0.219440 -1.307381 -8.458614 -8.901633 18.024571 -9.555106 44.668417 9.553479 -4.685776 7.010025 6.596968 -0.757809 -17.730786 -4.902479 -4.328220 34.213346 -15.980910 1.397470 -17.930040 -14.430450 -22.911677 9.850044 -13.357557 -2.236354 -1.237420 -1.931461 -12.951225 -0.064878 -3.443293 2.760356 0.525430 -0.089300 0.354290 0.018960 1.235911 24.984476 13.122885 14.921554 -2.522831 -9.656352 -24.269797 -18.720197 2.897152 3.412477 -1.270959 -0.051410 0.125800 -0.014230 -0.017850 
0.887640 16.084200 0.831220 2.689785 8.142385 -5.467791 -16.174348 14.461073 4.045631 -12.508533 -0.680637 -5.165914 -14.622910 7.118147 10.630530 0.207784 4.556238 2.977051 0.197620 0.222440 0.283160 17.480748 -7.888658 3.573197 1.245807 6.151807 -32.764597 16.422352 -14.787353 44.409360 -1.225219 -7.289400 1.643366 -0.067760 -0.095600 0.249670 -1.172750 -8.516149 -8.879561 18.170682 -7.653850 46.513781 10.128564 -3.392886 8.717054 6.144527 -0.183398 -18.051859 -3.627529 -5.984411 33.631649 -14.359320 -0.435290 -20.044950 -13.187939 -23.454161 9.941601 -9.661698 -1.952347 -1.232796 -0.490100 -12.700545 -0.079095 -3.407281 2.806056 0.525020 -0.136500 0.413240 0.030490 0.840846 25.680139 13.571910 19.542096 -2.452116 -8.713813 -21.116835 -17.647665 2.512060 3.399870 -1.240960 0.017020 0.090830 -0.059290 -0.001010 
0.908940 16.075940 0.830660 3.960894 8.351104 -6.550972 -16.208520 14.485969 4.124719 -13.117571 -0.462169 -3.737540 -15.020196 7.456358 11.315119 0.293462 4.701448 2.901402 0.261960 0.310060 0.330970 17.456785 -7.950115 3.453822 2.919539 6.766248 -29.132546 14.228710 -13.241682 44.321488 -1.191158 -6.951608 1.745377 -0.031770 -0.166560 0.253720 -1.098650 -8.467484 -8.874611 19.196784 -5.884121 47.887786 9.924197 -1.259357 9.533103 6.070501 0.314071 -18.452198 -2.445523 -7.251235 33.510724 -14.505930 -1.272870 -21.033150 -13.728655 -23.532020 9.948539 -5.086806 -0.227422 -1.396543 3.897763 -11.457556 -0.275133 -3.422497 2.830235 0.519900 -0.176550 0.457720 0.036920 1.534045 26.637011 13.978194 23.295778 -1.852365 -7.396502 -18.113094 -16.137663 2.147704 3.377720 -1.220419 0.061090 0.052130 -0.113440 0.005840 
0.926690 16.083310 0.860690 6.139813 6.628323 -8.553416 -16.264876 14.537189 4.304586 -14.584369 -0.113269 -1.797062 -15.672925 7.822234 11.450118 0.266125 4.992978 2.802528 0.289270 0.297180 0.373660 17.413940 -8.113635 3.151340 4.598127 6.766824 -22.804676 9.844414 -10.297271 42.881046 -1.051671 -6.208695 1.991048 -0.001750 -0.169100 0.239420 -0.963195 -8.415702 -8.838171 18.807700 -3.042826 50.199592 9.914460 0.978643 12.215562 5.709838 0.427474 -19.551677 -2.015126 -7.968514 34.640291 -13.840460 -2.763380 -21.874150 -13.388530 -24.210711 10.706343 0.870674 2.677824 -0.389505 3.142715 -7.286974 -0.251215 -3.506263 2.634347 0.593310 -0.196240 0.454060 0.017590 1.976119 28.889693 14.299661 25.674625 0.761488 -5.992972 -14.053996 -15.668261 1.785299 3.317664 -1.092238 0.010070 0.105950 -0.087810 -0.038150 
0.943140 16.067920 0.875680 8.220222 9.338952 -9.832102 -16.214002 14.345697 4.473344 -15.948346 -0.022018 0.245645 -16.595869 8.407260 12.710281 0.275414 5.355930 2.660168 0.355210 0.371580 0.451430 17.452877 -8.517976 2.866917 4.773315 5.711087 -19.140395 6.120998 -8.343986 41.683550 -0.962843 -5.754283 2.101411 0.085830 -0.186490 0.231770 -1.110882 -7.577844 -8.675969 20.318840 -1.188344 49.670540 10.539080 1.642429 16.793575 4.090530 2.128551 -20.941142 1.973000 -10.064246 32.532408 -12.740350 -4.154580 -22.928850 -8.628060 -26.288414 12.498401 6.223961 3.938778 0.670791 0.988986 -3.742819 -0.352948 -3.599008 2.374710 0.597800 -0.195590 0.460440 -0.005120 -0.166305 30.391763 13.786262 29.844417 4.972358 -4.719267 -10.343725 -16.682003 1.462527 3.280328 -1.040371 -0.007810 0.143370 -0.095480 -0.066550 
0.968460 16.049070 0.882790 9.959783 14.818542 -10.196298 -16.271480 14.586165 4.676588 -16.909197 -0.213848 1.662453 -16.415879 9.007696 15.158984 0.298163 5.767781 2.553018 0.326120 0.301890 0.426380 17.362731 -8.621346 2.585309 3.709031 4.295442 -17.229781 4.421134 -7.625999 40.204207 -0.866773 -5.403443 2.242435 0.081380 -0.133650 0.171540 -0.942010 -8.083784 -8.608955 21.025245 -0.906557 50.104240 11.501477 2.812738 15.423020 2.288070 2.855814 -22.004869 2.887718 -11.077802 32.934408 -9.663400 -5.893150 -23.320410 -7.553120 -27.101443 12.233617 13.916241 3.198830 0.887446 -1.901346 0.989589 -0.869454 -3.730923 1.814163 0.658960 -0.214330 0.412530 -0.005490 2.283345 30.452652 13.795298 30.741315 5.304816 -2.877006 -7.823527 -12.633032 1.150339 3.126642 -0.933306 -0.093160 0.224330 -0.060660 -0.086730 
0.987610 16.056790 0.890790 10.346964 21.454472 -11.104335 -16.295775 14.975624 4.781677 -14.870796 -0.308633 3.766806 -18.413341 9.973663 16.649917 0.514745 6.338956 2.393737 0.353840 0.347400 0.390070 17.276639 -8.659733 2.437891 3.091725 3.237440 -14.387858 4.105919 -7.444582 38.008393 -0.824673 -5.108334 2.372184 0.093280 -0.114940 0.149540 -0.802353 -8.860132 -8.538533 23.762748 -2.686486 50.601625 10.320232 3.606425 13.488420 0.991542 2.867871 -23.460444 2.381985 -12.207076 34.127328 -7.074350 -8.443270 -22.902710 -7.047352 -28.422380 11.773278 22.396025 4.183984 0.102836 -4.964361 4.451339 -1.563254 -3.786396 1.228080 0.627710 -0.241350 0.408490 0.043770 4.421291 31.673838 14.170305 31.407917 6.112423 -1.552537 -6.734928 -9.502618 1.014826 3.082045 -0.910994 -0.064390 0.242190 -0.094940 -0.029470 
1.020620 16.085360 0.899270 10.743599 27.732118 -11.855006 -16.306192 15.339165 4.870164 -13.837923 -0.435137 4.565677 -18.494993 10.520566 18.433280 0.655777 6.545206 2.300718 0.395570 0.460160 0.364350 17.209022 -8.704945 2.294536 2.345557 2.273313 -10.844660 3.156985 -7.002106 35.905770 -0.794413 -4.864007 2.469844 0.135900 -0.174970 0.120840 -0.613077 -9.600258 -8.431537 26.504683 -3.795313 50.476262 8.646784 5.076197 12.038420 -0.057718 3.790951 -24.949531 3.657788 -13.242492 34.406359 -6.583500 -9.659360 -22.900280 -4.222807 -29.192262 12.551084 27.201010 7.119148 0.087331 -5.264791 3.235706 -1.397313 -3.625937 1.001893 0.574170 -0.277930 0.434930 0.070370 3.356890 32.339917 13.955791 33.617555 8.936748 -0.450187 -6.044534 -8.724729 1.026057 3.118389 -0.952645 -0.006710 0.198530 -0.156850 0.019120 
1.037240 16.156020 0.873620 10.603715 33.745149 -14.921051 -16.229993 15.660910 4.889889 -12.346060 0.247195 7.174748 -17.717269 11.027428 19.683038 0.742160 6.781998 2.222768 0.506000 0.652570 0.399450 17.231984 -8.711293 2.244939 1.118000 2.134616 -6.296198 3.404828 -7.228977 35.928247 -0.900600 -5.103151 2.395007 0.255680 -0.214530 0.058920 -0.485208 -10.338702 -8.199043 31.082783 -6.131778 52.212805 4.466683 6.043342 13.428154 -1.314173 4.795384 -26.905168 5.096032 -14.213378 33.337702 -4.793070 -11.328870 -25.295630 1.421774 -29.322401 13.996186 30.544178 12.132307 0.290854 -5.473131 2.302640 -1.445151 -3.382808 0.479680 0.560100 -0.332230 0.481480 0.125830 -0.826024 33.417381 14.242836 34.344068 14.935292 1.441337 -4.707966 -7.989755 0.946961 3.156616 -0.936033 0.008050 0.248890 -0.255880 0.068150 
1.015790 16.222370 0.834960 10.927204 39.816239 -17.009237 -16.147994 16.087207 4.908784 -10.685132 1.679525 10.429065 -16.658533 11.685197 20.559505 0.869768 7.109689 2.150650 0.589050 0.772490 0.393320 17.256981 -8.574421 2.280411 -0.466100 3.127504 -3.289884 4.696621 -6.978768 34.620786 -0.875188 -5.141095 2.383856 0.360280 -0.178050 0.015910 -0.085926 -11.542219 -7.984441 33.183992 -8.020869 54.104860 1.365163 7.960235 16.219450 -3.301300 4.692030 -30.430375 5.056423 -16.259000 31.938535 -2.891880 -14.918080 -23.079150 7.470099 -26.951148 13.483725 32.821659 16.845487 0.148621 -6.200417 1.980132 -1.632107 -3.232033 -0.085831 0.454320 -0.323230 0.429400 0.192260 -3.200797 35.561095 17.944966 30.676093 18.668104 2.339212 -5.452717 -5.747640 0.620219 3.235833 -0.991612 0.024400 0.266590 -0.329800 0.138700 
0.986330 16.260640 0.833490 11.381767 48.605786 -18.546429 -15.913701 16.318038 4.824592 -9.881977 3.420234 14.394065 -13.684184 11.862627 21.716626 0.792329 7.363594 2.012724 0.760300 1.033950 0.477760 17.503756 -8.401784 2.203088 -2.011545 4.038968 -0.581060 6.877201 -6.976025 32.292177 -0.912459 -5.221182 2.321468 0.590410 -0.185150 0.058010 0.589089 -13.007101 -7.662799 34.746491 -4.775793 52.891781 3.579258 4.241510 23.851709 -5.899395 8.108710 -31.384935 10.236117 -17.008054 23.497238 -4.191310 -14.194860 -24.874360 15.905047 -21.921250 13.327684 29.588695 23.421863 0.773998 -7.686744 1.956441 -1.980703 -2.518749 -0.586567 0.401150 -0.241440 0.448170 0.233170 -10.493436 33.801674 22.531491 21.621345 25.568011 3.076794 -6.004670 -5.812478 0.032379 3.386561 -0.942428 0.028410 0.276310 -0.397660 0.132580 
0.950830 16.317350 0.861750 11.357396 56.219191 -20.165056 -15.538202 16.402007 4.612018 -8.819674 4.897020 16.387517 -10.063643 11.678895 23.311551 0.694304 7.365166 1.900140 1.039930 1.465320 0.603060 17.899336 -8.341915 2.163666 -2.978404 4.077958 4.000100 7.303677 -6.382069 29.051883 -1.029534 -5.285501 2.220278 0.888710 -0.246470 0.161230 1.030428 -13.973523 -7.290882 37.784578 -2.121538 51.369537 1.634743 -0.910433 30.216139 -6.686224 12.039513 -30.913661 13.996069 -16.392518 15.011661 -5.009230 -13.650520 -28.025040 23.894060 -14.692917 16.270601 21.842946 30.079792 1.772978 -7.057503 0.551753 -1.941795 -2.002258 -0.460410 0.299560 -0.184860 0.553090 0.308520 -21.569215 32.869720 27.711010 14.681402 30.333918 3.654554 -5.466638 -6.727089 -0.531748 3.603801 -0.907919 0.145990 0.254110 -0.514070 0.179640 
0.938960 16.380860 0.965230 16.699401 66.704810 -14.729913 -15.431229 15.994054 4.075983 -8.591204 6.307682 18.407488 -7.020584 11.094182 23.970193 0.627889 7.359115 1.757498 1.315020 1.886480 0.787770 18.263699 -8.222259 1.624574 -5.788661 3.177603 6.400903 7.514373 -6.191768 25.875090 -1.122597 -5.312234 2.046495 1.129540 -0.334400 0.383450 1.866600 -14.017175 -7.732462 35.332669 5.962601 44.896191 7.420358 -9.171852 34.408840 -7.620718 17.811976 -26.566477 15.968149 -13.678863 5.576518 -8.798800 -12.820800 -30.965450 34.811648 -10.236808 23.456723 2.685770 31.858620 14.969711 -4.378011 -0.201430 -1.718413 -4.015100 -1.636864 0.183440 -0.110220 0.741620 0.337930 -32.646997 30.611176 29.184972 12.005854 30.971967 2.750603 -7.635418 -7.953755 -1.136285 3.795385 -1.254873 0.359900 0.206970 -0.571080 0.226420 
